<svg xmlns="http://www.w3.org/2000/svg" x="0px" y="0px"
     width="32" height="32"
     viewBox="0 0 172 172"
     style=" fill:#000000;">
  <g fill="none" fill-rule="nonzero" stroke="none" stroke-width="1" stroke-linecap="butt" stroke-linejoin="miter"
     stroke-miterlimit="10" stroke-dasharray="" stroke-dashoffset="0" font-family="none" font-weight="none"
     font-size="none" style="mix-blend-mode: normal">
    <path d="M0,172v-172h172v172z" fill="none"></path>
    <g fill="#545e6f">
      <path
        d="M59.125,26.875c-14.77865,0 -26.875,12.09635 -26.875,26.875c0,7.9687 3.58583,15.07611 9.1438,20.00928c-14.87146,6.77871 -25.2688,21.75356 -25.2688,39.11572h10.75c0,-17.8749 14.3751,-32.25 32.25,-32.25c16.30184,0 29.69062,12.00713 31.92456,27.63086l0.36743,-0.05249c-3.44142,6.17513 -5.41699,13.26191 -5.41699,20.79663c0,23.65 19.35,43 43,43c23.65,0 43,-19.35 43,-43c0,-16.02624 -8.90555,-30.05255 -21.99341,-37.44653c-1.68988,-9.82976 -8.01854,-17.99302 -16.52393,-22.68628c1.93271,-1.94726 3.49443,-4.25374 4.57715,-6.81323c0.54043,-1.27277 0.96293,-2.6078 1.24927,-3.98926c0.00139,-0.00672 -0.00138,-0.01427 0,-0.02099c0.28642,-1.38854 0.44092,-2.82414 0.44092,-4.2937c0,-11.81067 -9.68933,-21.5 -21.5,-21.5c-10.33434,0 -19.04301,7.41848 -21.05908,17.1853c-0.28801,1.39526 -0.44092,2.83836 -0.44092,4.3147c0,1.46748 0.15474,2.89691 0.44092,4.2832c0.85349,4.1653 2.92057,7.90238 5.81592,10.82349c-5.74747,3.15784 -10.52772,7.84485 -13.54248,13.61597c-3.62392,-3.61596 -7.88244,-6.57732 -12.59766,-8.72388c5.55157,-4.93288 9.1333,-12.03538 9.1333,-19.99878c0,-14.77865 -12.09635,-26.875 -26.875,-26.875zM59.125,37.625c8.9681,0 16.125,7.1569 16.125,16.125c0,8.9681 -7.1569,16.125 -16.125,16.125c-8.9681,0 -16.125,-7.1569 -16.125,-16.125c0,-8.9681 7.1569,-16.125 16.125,-16.125zM118.25,43c6.00208,0 10.75,4.74792 10.75,10.75c0,6.00208 -4.74792,10.75 -10.75,10.75c-6.00208,0 -10.75,-4.74792 -10.75,-10.75c0,-0.75026 0.07891,-1.47935 0.22046,-2.18359c0.99084,-4.92971 5.27772,-8.56641 10.52954,-8.56641zM118.25,75.25c8.32478,0 15.41397,4.70292 18.99097,11.56885c-2.6703,-0.52394 -5.42312,-0.81885 -8.24097,-0.81885c-11.4501,0 -21.86766,4.56246 -29.59399,11.92578c-0.71049,-1.90921 -1.5353,-3.76225 -2.49854,-5.53247l0.27295,0.05249c1.98799,-9.79823 10.61238,-17.1958 21.06958,-17.1958zM129,96.75c17.7375,0 32.25,14.5125 32.25,32.25c0,17.7375 -14.5125,32.25 -32.25,32.25c-17.7375,0 -32.25,-14.5125 -32.25,-32.25c0,-17.7375 14.5125,-32.25 32.25,-32.25zM123.625,107.5v24.7229l-9.1333,9.1438l7.5166,7.5166l12.3667,-12.3562v-29.0271z"></path>
    </g>
  </g>
</svg>
