<svg xmlns="http://www.w3.org/2000/svg" x="0px" y="0px"
     width="64" height="64"
     viewBox="0 0 172 172"
     style=" fill:#000000;">
  <g fill="none" fill-rule="nonzero" stroke="none" stroke-width="1" stroke-linecap="butt" stroke-linejoin="miter"
     stroke-miterlimit="10" stroke-dasharray="" stroke-dashoffset="0" font-family="none" font-weight="none"
     font-size="none" text-anchor="none" style="mix-blend-mode: normal">
    <path d="M0,172v-172h172v172z" fill="none"></path>
    <g fill="#545e6f">
      <path
        d="M23.20768,17.83968c-0.26048,0.0068 -0.52011,0.03253 -0.77686,0.07699h-6.30583c-1.93842,-0.02741 -3.74144,0.99102 -4.71865,2.66532c-0.97721,1.6743 -0.97721,3.74507 0,5.41937c0.97721,1.6743 2.78023,2.69273 4.71865,2.66532h1.79167v68.44726c-5.99672,0.91601 -10.75,5.94843 -10.75,12.17774v39.41667c0.0003,2.96841 2.40659,5.3747 5.375,5.375h100.33333c2.96841,-0.0003 5.3747,-2.40659 5.375,-5.375v-39.41667c0,-6.22931 -4.75327,-11.26173 -10.75,-12.17774v-68.44726h1.79167c1.93842,0.02741 3.74144,-0.99102 4.71865,-2.66532c0.97721,-1.6743 0.97721,-3.74507 0,-5.41937c-0.97721,-1.6743 -2.78023,-2.69273 -4.71865,-2.66532h-6.28483c-0.57703,-0.09479 -1.16565,-0.09479 -1.74268,0h-77.09066c-0.31897,-0.05468 -0.64222,-0.08045 -0.96582,-0.07699zM28.66667,28.66667h68.08333v73.45833c0.0003,2.96841 2.40659,5.3747 5.375,5.375h3.58333c1.05724,0 1.79167,0.73442 1.79167,1.79167v34.04167h-35.83333v-21.5c0,-1.978 -1.60533,-3.58333 -3.58333,-3.58333h-10.75c-1.978,0 -3.58333,1.60533 -3.58333,3.58333v21.5h-35.83333v-34.04167c0,-1.05724 0.73442,-1.79167 1.79167,-1.79167h3.58333c2.96841,-0.0003 5.3747,-2.40659 5.375,-5.375zM46.58333,43c-1.978,0 -3.58333,1.60533 -3.58333,3.58333v7.16667c0,1.978 1.60533,3.58333 3.58333,3.58333h7.16667c1.978,0 3.58333,-1.60533 3.58333,-3.58333v-7.16667c0,-1.978 -1.60533,-3.58333 -3.58333,-3.58333zM71.66667,43c-1.978,0 -3.58333,1.60533 -3.58333,3.58333v7.16667c0,1.978 1.60533,3.58333 3.58333,3.58333h7.16667c1.978,0 3.58333,-1.60533 3.58333,-3.58333v-7.16667c0,-1.978 -1.60533,-3.58333 -3.58333,-3.58333zM114.66667,43v10.75h30.45833c4.945,0 8.95833,4.01333 8.95833,8.95833v80.625h-28.66667v7.16667c0,1.26492 -0.25655,2.45817 -0.65788,3.58333h34.69955c2.97417,0 5.375,-2.40083 5.375,-5.375v-86c0,-10.8575 -8.85083,-19.70833 -19.70833,-19.70833zM46.58333,68.08333c-1.978,0 -3.58333,1.60533 -3.58333,3.58333v7.16667c0,1.978 1.60533,3.58333 3.58333,3.58333h7.16667c1.978,0 3.58333,-1.60533 3.58333,-3.58333v-7.16667c0,-1.978 -1.60533,-3.58333 -3.58333,-3.58333zM71.66667,68.08333c-1.978,0 -3.58333,1.60533 -3.58333,3.58333v7.16667c0,1.978 1.60533,3.58333 3.58333,3.58333h7.16667c1.978,0 3.58333,-1.60533 3.58333,-3.58333v-7.16667c0,-1.978 -1.60533,-3.58333 -3.58333,-3.58333zM132.58333,68.08333c-1.978,0 -3.58333,1.60533 -3.58333,3.58333v7.16667c0,1.978 1.60533,3.58333 3.58333,3.58333h7.16667c1.978,0 3.58333,-1.60533 3.58333,-3.58333v-7.16667c0,-1.978 -1.60533,-3.58333 -3.58333,-3.58333zM46.58333,93.16667c-1.978,0 -3.58333,1.60533 -3.58333,3.58333v7.16667c0,1.978 1.60533,3.58333 3.58333,3.58333h7.16667c1.978,0 3.58333,-1.60533 3.58333,-3.58333v-7.16667c0,-1.978 -1.60533,-3.58333 -3.58333,-3.58333zM71.66667,93.16667c-1.978,0 -3.58333,1.60533 -3.58333,3.58333v7.16667c0,1.978 1.60533,3.58333 3.58333,3.58333h7.16667c1.978,0 3.58333,-1.60533 3.58333,-3.58333v-7.16667c0,-1.978 -1.60533,-3.58333 -3.58333,-3.58333zM132.58333,93.16667c-1.978,0 -3.58333,1.60533 -3.58333,3.58333v7.16667c0,1.978 1.60533,3.58333 3.58333,3.58333h7.16667c1.978,0 3.58333,-1.60533 3.58333,-3.58333v-7.16667c0,-1.978 -1.60533,-3.58333 -3.58333,-3.58333zM32.25,118.25c-1.978,0 -3.58333,1.60533 -3.58333,3.58333v7.16667c0,1.978 1.60533,3.58333 3.58333,3.58333h7.16667c1.978,0 3.58333,-1.60533 3.58333,-3.58333v-7.16667c0,-1.978 -1.60533,-3.58333 -3.58333,-3.58333zM86,118.25c-1.978,0 -3.58333,1.60533 -3.58333,3.58333v7.16667c0,1.978 1.60533,3.58333 3.58333,3.58333h7.16667c1.978,0 3.58333,-1.60533 3.58333,-3.58333v-7.16667c0,-1.978 -1.60533,-3.58333 -3.58333,-3.58333zM132.58333,118.25c-1.978,0 -3.58333,1.60533 -3.58333,3.58333v7.16667c0,1.978 1.60533,3.58333 3.58333,3.58333h7.16667c1.978,0 3.58333,-1.60533 3.58333,-3.58333v-7.16667c0,-1.978 -1.60533,-3.58333 -3.58333,-3.58333z"></path>
    </g>
  </g>
</svg>
