<svg xmlns="http://www.w3.org/2000/svg" x="0px" y="0px"
     width="24" height="24"
     viewBox="0 0 172 172"
     style=" fill:#000000;">
  <g fill="none" fill-rule="nonzero" stroke="none" stroke-width="1" stroke-linecap="butt" stroke-linejoin="miter"
     stroke-miterlimit="10" stroke-dasharray="" stroke-dashoffset="0" font-family="none" font-weight="none"
     font-size="none" text-anchor="none" style="mix-blend-mode: normal">
    <path d="M0,172v-172h172v172z" fill="none"></path>
    <g fill="#545e6f">
      <path
        d="M37.625,21.5c-8.84188,0 -16.125,7.28312 -16.125,16.125v10.75c0,8.84188 7.28312,16.125 16.125,16.125h28.66667c8.84188,0 16.125,-7.28312 16.125,-16.125v-10.75c0,-8.84188 -7.28312,-16.125 -16.125,-16.125zM105.70833,21.5c-8.84188,0 -16.125,7.28312 -16.125,16.125v46.58333c0,8.84188 7.28312,16.125 16.125,16.125h28.66667c8.84188,0 16.125,-7.28312 16.125,-16.125v-46.58333c0,-8.84188 -7.28312,-16.125 -16.125,-16.125zM37.625,32.25h28.66667c3.03329,0 5.375,2.34171 5.375,5.375v10.75c0,3.03329 -2.34171,5.375 -5.375,5.375h-28.66667c-3.03329,0 -5.375,-2.34171 -5.375,-5.375v-10.75c0,-3.03329 2.34171,-5.375 5.375,-5.375zM105.70833,32.25h28.66667c3.03329,0 5.375,2.34171 5.375,5.375v46.58333c0,3.03329 -2.34171,5.375 -5.375,5.375h-28.66667c-3.03329,0 -5.375,-2.34171 -5.375,-5.375v-46.58333c0,-3.03329 2.34171,-5.375 5.375,-5.375zM37.625,71.66667c-8.84188,0 -16.125,7.28312 -16.125,16.125v46.58333c0,8.84188 7.28312,16.125 16.125,16.125h28.66667c8.84188,0 16.125,-7.28312 16.125,-16.125v-46.58333c0,-8.84188 -7.28312,-16.125 -16.125,-16.125zM37.625,82.41667h28.66667c3.03329,0 5.375,2.34171 5.375,5.375v46.58333c0,3.03329 -2.34171,5.375 -5.375,5.375h-28.66667c-3.03329,0 -5.375,-2.34171 -5.375,-5.375v-46.58333c0,-3.03329 2.34171,-5.375 5.375,-5.375zM105.70833,107.5c-8.84188,0 -16.125,7.28312 -16.125,16.125v10.75c0,8.84188 7.28312,16.125 16.125,16.125h28.66667c8.84188,0 16.125,-7.28312 16.125,-16.125v-10.75c0,-8.84188 -7.28312,-16.125 -16.125,-16.125zM105.70833,118.25h28.66667c3.03329,0 5.375,2.34171 5.375,5.375v10.75c0,3.03329 -2.34171,5.375 -5.375,5.375h-28.66667c-3.03329,0 -5.375,-2.34171 -5.375,-5.375v-10.75c0,-3.03329 2.34171,-5.375 5.375,-5.375z"></path>
    </g>
  </g>
</svg>
