<svg xmlns="http://www.w3.org/2000/svg" x="0px" y="0px"
     width="64" height="64"
     viewBox="0 0 172 172"
     style=" fill:#000000;">
  <g fill="none" fill-rule="nonzero" stroke="none" stroke-width="1" stroke-linecap="butt" stroke-linejoin="miter"
     stroke-miterlimit="10" stroke-dasharray="" stroke-dashoffset="0" font-family="none"
     font-size="none" style="mix-blend-mode: normal">
    <path d="M0,172v-172h172v172z" fill="none"></path>
    <g fill="#545e6f">
      <path
        d="M41.20833,21.5c-10.82086,0 -19.70833,8.88748 -19.70833,19.70833v89.58333c0,10.82086 8.88748,19.70833 19.70833,19.70833h89.58333c10.82086,0 19.70833,-8.88748 19.70833,-19.70833v-89.58333c0,-10.82086 -8.88748,-19.70833 -19.70833,-19.70833zM41.20833,32.25h89.58333c5.01031,0 8.95833,3.94802 8.95833,8.95833v89.58333c0,5.01031 -3.94802,8.95833 -8.95833,8.95833h-89.58333c-5.01031,0 -8.95833,-3.94802 -8.95833,-8.95833v-89.58333c0,-5.01031 3.94802,-8.95833 8.95833,-8.95833zM80.625,43c-2.96841,0.0003 -5.3747,2.40659 -5.375,5.375v17.91667c0.0003,2.96841 2.40659,5.3747 5.375,5.375h43c2.96841,-0.0003 5.3747,-2.40659 5.375,-5.375v-17.91667c-0.0003,-2.96841 -2.40659,-5.3747 -5.375,-5.375zM48.375,50.16667c-1.93842,-0.02741 -3.74144,0.99102 -4.71865,2.66532c-0.97721,1.6743 -0.97721,3.74507 0,5.41937c0.97721,1.6743 2.78023,2.69273 4.71865,2.66532h10.75c1.93842,0.02741 3.74144,-0.99102 4.71865,-2.66532c0.97721,-1.6743 0.97721,-3.74507 0,-5.41937c-0.97721,-1.6743 -2.78023,-2.69273 -4.71865,-2.66532zM86,53.75h32.25v7.16667h-32.25zM80.625,78.83333c-2.96841,0.0003 -5.3747,2.40659 -5.375,5.375v17.91667c0.0003,2.96841 2.40659,5.3747 5.375,5.375h43c2.96841,-0.0003 5.3747,-2.40659 5.375,-5.375v-17.91667c-0.0003,-2.96841 -2.40659,-5.3747 -5.375,-5.375zM48.375,86c-1.93842,-0.02741 -3.74144,0.99102 -4.71865,2.66532c-0.97721,1.6743 -0.97721,3.74507 0,5.41937c0.97721,1.6743 2.78023,2.69273 4.71865,2.66532h10.75c1.93842,0.02741 3.74144,-0.99102 4.71865,-2.66532c0.97721,-1.6743 0.97721,-3.74507 0,-5.41937c-0.97721,-1.6743 -2.78023,-2.69273 -4.71865,-2.66532zM86,89.58333h32.25v7.16667h-32.25zM66.29167,118.25c-1.93842,-0.02741 -3.74144,0.99102 -4.71865,2.66532c-0.97721,1.6743 -0.97721,3.74507 0,5.41937c0.97721,1.6743 2.78023,2.69273 4.71865,2.66532h57.33333c1.93842,0.02741 3.74144,-0.99102 4.71865,-2.66532c0.97721,-1.6743 0.97721,-3.74507 0,-5.41937c-0.97721,-1.6743 -2.78023,-2.69273 -4.71865,-2.66532z"></path>
    </g>
  </g>
</svg>
