<svg xmlns="http://www.w3.org/2000/svg" x="0px" y="0px"
     width="26" height="26"
     viewBox="0 0 172 172"
     style=" fill:#000000;">
  <g fill="none" fill-rule="nonzero" stroke="none" stroke-width="1" stroke-linecap="butt" stroke-linejoin="miter"
     stroke-miterlimit="10" stroke-dasharray="" stroke-dashoffset="0" font-family="none"
     font-size="none" style="mix-blend-mode: normal">
    <path d="M0,172v-172h172v172z" fill="none"></path>
    <g fill="#545e6f">
      <path
        d="M86,21.5c-39.23212,0 -59.125,18.08612 -59.125,53.78149l0.021,4.11523c-3.38625,3.02612 -5.396,7.38265 -5.396,11.97827c0,7.00363 4.62569,13.10366 11.06494,15.25366c3.87537,11.997 9.62931,26.43526 14.44531,31.53613c7.51963,7.955 17.54912,12.33521 28.22925,12.33521c10.6855,0 20.72012,-4.38533 28.23974,-12.3457c0.92987,-0.98362 1.89821,-2.39288 2.87646,-3.98926c-2.64988,-4.63862 -4.18259,-9.99146 -4.22021,-15.70508c-2.62838,6.27263 -5.0048,10.76621 -6.4668,12.31421c-5.47175,5.78887 -12.72682,8.97583 -20.4292,8.97583c-7.697,0 -14.94695,-3.18696 -20.4187,-8.97583c-2.63375,-2.78963 -8.18235,-14.89211 -12.9231,-30.31836l-1.0708,-3.47485l-3.63232,-0.30445c-2.81113,-0.23112 -4.94458,-2.50651 -4.94458,-5.30151c0,-1.90812 1.01487,-3.64601 2.72949,-4.62964l2.698,-1.56421l-0.05249,-9.93115c0,-28.34237 14.34436,-42.04988 45.07861,-42.94751l3.86328,7.72656c1.79385,3.58286 2.37304,6.03764 2.40405,7.12817c0.03118,1.09053 0.05465,0.68558 -0.17847,0.88184c-0.46628,0.39251 -4.84031,1.4797 -10.43506,1.76367c-5.59475,0.28397 -12.19409,0.29325 -18.32959,2.6665c-6.13551,2.37326 -11.58262,8.64239 -11.65283,17.36377l10.75,0.08398c0.04246,-5.2993 1.34528,-6.09485 4.77661,-7.42212c3.43133,-1.32726 9.21515,-1.65947 14.99121,-1.95264c5.77607,-0.29315 11.75934,-0.01451 16.81788,-4.27271c2.52927,-2.12902 4.11269,-5.81425 4.01025,-9.41675c-0.02146,-0.75471 -0.12159,-1.51282 -0.24146,-2.27808c4.67711,1.98517 7.8324,5.70589 9.87866,10.30908c1.4835,-3.83775 3.80962,-7.23139 6.77124,-9.99414c-6.22425,-9.12137 -15.03765,-11.8428 -21.34253,-12.47168l-5.46948,-10.91797zM134.375,48.375c-8.84171,0 -16.125,7.28329 -16.125,16.125v40.21802c-3.13422,3.7146 -5.375,8.27629 -5.375,13.53198c0,11.81067 9.68933,21.5 21.5,21.5c11.81067,0 21.5,-9.68933 21.5,-21.5c0,-5.25569 -2.24078,-9.81738 -5.375,-13.53198v-2.59302h5.375v-10.75h-5.375v-5.375h5.375v-10.75h-5.375v-5.375h5.375v-10.75h-7.61109c-2.3833,-5.94848 -7.13457,-10.75 -13.88891,-10.75zM134.375,59.125c3.03704,0 5.375,2.33796 5.375,5.375v44.20727l1.77417,1.5957c2.22697,2.00427 3.60083,4.76924 3.60083,7.94702c0,6.00208 -4.74792,10.75 -10.75,10.75c-6.00208,0 -10.75,-4.74792 -10.75,-10.75c0,-3.17778 1.37386,-5.94275 3.60083,-7.94702l1.77417,-1.5957v-44.20727c0,-3.03704 2.33796,-5.375 5.375,-5.375zM59.125,86c-2.967,0 -5.375,2.408 -5.375,5.375c0,2.967 2.408,5.375 5.375,5.375c2.967,0 5.375,-2.408 5.375,-5.375c0,-2.967 -2.408,-5.375 -5.375,-5.375zM91.375,86c-2.967,0 -5.375,2.408 -5.375,5.375c0,2.967 2.408,5.375 5.375,5.375c2.967,0 5.375,-2.408 5.375,-5.375c0,-2.967 -2.408,-5.375 -5.375,-5.375z"></path>
    </g>
  </g>
</svg>
