<svg xmlns="http://www.w3.org/2000/svg" x="0px" y="0px"
     width="48" height="48"
     viewBox="0 0 172 172"
     style=" fill:#000000;">
  <g fill="none" fill-rule="nonzero" stroke="none" stroke-width="1" stroke-linecap="butt" stroke-linejoin="miter"
     stroke-miterlimit="10" stroke-dasharray="" stroke-dashoffset="0" font-family="none" font-weight="none"
     font-size="none" text-anchor="none" style="mix-blend-mode: normal">
    <path d="M0,172v-172h172v172z" fill="none"></path>
    <g fill="#545e6f">
      <path
        d="M44.88965,7.16667c-1.4424,-0.02615 -2.83477,0.52856 -3.86404,1.5394c-1.02927,1.01084 -1.60904,2.39297 -1.60894,3.8356v16.78288c-10.23033,2.45003 -17.91667,11.68597 -17.91667,22.63379v75.25c0,12.79944 10.49222,23.29167 23.29167,23.29167h82.41667c12.79944,0 23.29167,-10.49222 23.29167,-23.29167v-75.25c0,-10.94782 -7.68633,-20.18376 -17.91667,-22.63379v-16.78288c0.00027,-1.81977 -0.92016,-3.51612 -2.44593,-4.50787c-1.52577,-0.99175 -3.44971,-1.14424 -5.11266,-0.40521l-13.4235,5.96989l-8.28646,-5.52897c-1.60403,-1.06878 -3.65751,-1.19696 -5.382,-0.33594l-11.93278,5.96289l-11.93278,-5.96289c-1.72448,-0.86102 -3.77797,-0.73284 -5.382,0.33594l-8.28646,5.52897l-13.4235,-5.96989c-0.6573,-0.29194 -1.36651,-0.44902 -2.08561,-0.46191zM72.0516,18.74251l11.54785,5.77393c1.51147,0.75438 3.28964,0.75438 4.80111,0l11.54785,-5.77393l8.15348,5.43799c1.53241,1.02224 3.48153,1.18863 5.16504,0.44092l8.56641,-3.80729v12.3457c-0.09479,0.57703 -0.09479,1.16565 0,1.74268v18.84749h-71.66667v-18.8265c0.09479,-0.57703 0.09479,-1.16565 0,-1.74268v-12.3667l8.56641,3.80729c1.6835,0.74771 3.63263,0.58132 5.16504,-0.44092zM39.41667,40.64844v18.47656c0.0003,2.96841 2.40659,5.3747 5.375,5.375h82.41667c2.96841,-0.0003 5.3747,-2.40659 5.375,-5.375v-18.47656c4.24491,1.99767 7.16667,6.26095 7.16667,11.3099v62.70833h-107.5v-62.70833c0,-5.04895 2.92176,-9.31223 7.16667,-11.3099zM60.91667,71.66667c-3.95804,0 -7.16667,3.20863 -7.16667,7.16667c0,3.95804 3.20863,7.16667 7.16667,7.16667c3.95804,0 7.16667,-3.20863 7.16667,-7.16667c0,-3.95804 -3.20863,-7.16667 -7.16667,-7.16667zM86,71.66667c-3.95804,0 -7.16667,3.20863 -7.16667,7.16667c0,3.95804 3.20863,7.16667 7.16667,7.16667c3.95804,0 7.16667,-3.20863 7.16667,-7.16667c0,-3.95804 -3.20863,-7.16667 -7.16667,-7.16667zM111.08333,71.66667c-3.95804,0 -7.16667,3.20863 -7.16667,7.16667c0,3.95804 3.20863,7.16667 7.16667,7.16667c3.95804,0 7.16667,-3.20863 7.16667,-7.16667c0,-3.95804 -3.20863,-7.16667 -7.16667,-7.16667zM60.91667,93.16667c-3.95804,0 -7.16667,3.20863 -7.16667,7.16667c0,3.95804 3.20863,7.16667 7.16667,7.16667c3.95804,0 7.16667,-3.20863 7.16667,-7.16667c0,-3.95804 -3.20863,-7.16667 -7.16667,-7.16667zM86,93.16667c-3.95804,0 -7.16667,3.20863 -7.16667,7.16667c0,3.95804 3.20863,7.16667 7.16667,7.16667c3.95804,0 7.16667,-3.20863 7.16667,-7.16667c0,-3.95804 -3.20863,-7.16667 -7.16667,-7.16667zM111.08333,93.16667c-3.95804,0 -7.16667,3.20863 -7.16667,7.16667c0,3.95804 3.20863,7.16667 7.16667,7.16667c3.95804,0 7.16667,-3.20863 7.16667,-7.16667c0,-3.95804 -3.20863,-7.16667 -7.16667,-7.16667zM32.25,125.41667h107.5v1.79167c0,6.98772 -5.55394,12.54167 -12.54167,12.54167h-34.04866c0,-3.95531 -3.20436,-7.1628 -7.15967,-7.16667c-3.95531,0.00386 -7.15967,3.21136 -7.15967,7.16667h-34.04866c-6.98772,0 -12.54167,-5.55394 -12.54167,-12.54167z"></path>
    </g>
  </g>
</svg>
