<svg xmlns="http://www.w3.org/2000/svg" x="0px" y="0px"
     width="50" height="50"
     viewBox="0 0 172 172"
     style=" fill:#000000;">
  <g fill="none" fill-rule="nonzero" stroke="none" stroke-width="1" stroke-linecap="butt" stroke-linejoin="miter"
     stroke-miterlimit="10" stroke-dasharray="" stroke-dashoffset="0" font-family="none"
     font-size="none" style="mix-blend-mode: normal">
    <path d="M0,172v-172h172v172z" fill="none"></path>
    <g fill="#545e6f">
      <path
        d="M48.375,37.625c-17.7417,0 -32.25,14.5083 -32.25,32.25c0,10.66602 5.24903,20.15625 13.26953,26.03516c-14.17236,7.03369 -24.01953,21.60498 -24.01953,38.46484h10.75c0,-17.86768 14.38232,-32.25 32.25,-32.25c17.86768,0 32.25,14.38232 32.25,32.25h10.75c0,-17.86768 14.38232,-32.25 32.25,-32.25c17.86768,0 32.25,14.38232 32.25,32.25h10.75c0,-16.85986 -9.84717,-31.43115 -24.01953,-38.46484c8.02051,-5.87891 13.26953,-15.36914 13.26953,-26.03516c0,-17.7417 -14.5083,-32.25 -32.25,-32.25c-17.7417,0 -32.25,14.5083 -32.25,32.25c0,10.66602 5.24903,20.15625 13.26953,26.03516c-7.83154,3.88428 -14.40332,10.01514 -18.64453,17.63672c-4.24121,-7.62158 -10.81299,-13.75244 -18.64453,-17.63672c8.02051,-5.87891 13.26953,-15.36914 13.26953,-26.03516c0,-17.7417 -14.5083,-32.25 -32.25,-32.25zM48.375,48.375c11.94678,0 21.5,9.55322 21.5,21.5c0,11.94678 -9.55322,21.5 -21.5,21.5c-11.94678,0 -21.5,-9.55322 -21.5,-21.5c0,-11.94678 9.55322,-21.5 21.5,-21.5zM123.625,48.375c11.94678,0 21.5,9.55322 21.5,21.5c0,11.94678 -9.55322,21.5 -21.5,21.5c-11.94678,0 -21.5,-9.55322 -21.5,-21.5c0,-11.94678 9.55322,-21.5 21.5,-21.5z"></path>
    </g>
  </g>
</svg>
